<svg xmlns="http://www.w3.org/2000/svg" xmlns:xlink="http://www.w3.org/1999/xlink" width="46" height="46" viewBox="0 0 46 46">
  <defs>
    <filter id="Ellipse_6" x="0" y="0" width="46" height="46" filterUnits="userSpaceOnUse">
      <feOffset dy="2" input="SourceAlpha"/>
      <feGaussianBlur stdDeviation="1" result="blur"/>
      <feFlood flood-opacity="0.161"/>
      <feComposite operator="in" in2="blur"/>
      <feComposite in="SourceGraphic"/>
    </filter>
  </defs>
  <g id="video" transform="translate(3 1)">
    <g transform="matrix(1, 0, 0, 1, -3, -1)" filter="url(#Ellipse_6)">
      <circle id="Ellipse_6-2" data-name="Ellipse 6" cx="20" cy="20" r="20" transform="translate(3 1)" fill="#051a1f"/>
    </g>
    <g id="hands" transform="translate(-35.738 -43.582)">
      <path id="Path_86" data-name="Path 86" d="M45.193,53.744c-.584-3.422-3.491-2.84-3.166.325.621,6.047,1.923,9.848,4.074,12.1,0,0,2.806-7.145,5.661-9.141,2.193-1.533,4.5.839,3.683,3.1a20.342,20.342,0,0,1-1.2,2.679c-.614,1.427-.507,1.844,1.112,1.376l5.048-1.55c2.077-1.862,4.005-3.661,4.805-4.393,1.175-1.076.041-2.026-.993-1.291-.417.3-3.651,2.549-4.5,3.122s-1.24-.218-.588-.93,3.507-3.589,4.582-4.9c1.181-1.438-.211-2.5-1.272-1.415s-4.351,3.888-5.1,4.6-1.468.208-.879-.623l4.6-6.5c1.212-1.711-.451-2.962-1.808-1.281-1.205,1.494-4.08,5.034-4.925,6.123-.661.852-1.439.374-.879-.623s1.708-3.12,3.491-6.259c1.041-1.832-.706-2.629-1.71-1.211-.45.635-2.961,4.578-5.736,8.7C47.149,59.237,45.678,56.582,45.193,53.744Z" fill="#21d4b4"/>
      <path id="Path_87" data-name="Path 87" d="M84.385,143.651c-3.911,5.839-5.206,9.949-4.366,13.319s2.432,4.679,5.182,5c3.066.353,12.1-.194,14.36-.3,1.591-.078,1.325-1.533.06-1.628-.51-.038-4.437-.37-5.456-.469s-.815-.959.141-1.092,4.991-.523,6.653-.844c1.827-.352,1.432-2.057-.076-1.9s-5.831.214-6.866.281-1.262-.778-.279-1.041l7.691-2.061c2.025-.543,1.545-2.568-.573-2.14-1.882.38-6.355,1.269-7.7,1.567-1.053.234-1.347-.631-.279-1.041s3.306-1.31,6.683-2.587c1.971-.745,1.136-2.474-.542-2.024-.752.2-5.2,1.632-9.972,3.034-4.021,1.182-3.458-1.8-2.018-4.294C88.765,142.416,86.156,141.007,84.385,143.651Z" transform="translate(-33.249 -84.437)" fill="#21d4b4"/>
    </g>
  </g>
</svg>
