<svg xmlns="http://www.w3.org/2000/svg" xmlns:xlink="http://www.w3.org/1999/xlink" width="46" height="46" viewBox="0 0 46 46">
  <defs>
    <filter id="Ellipse_8" x="0" y="0" width="46" height="46" filterUnits="userSpaceOnUse">
      <feOffset dy="2" input="SourceAlpha"/>
      <feGaussianBlur stdDeviation="1" result="blur"/>
      <feFlood flood-opacity="0.161"/>
      <feComposite operator="in" in2="blur"/>
      <feComposite in="SourceGraphic"/>
    </filter>
  </defs>
  <g id="audio" transform="translate(3 1)">
    <g transform="matrix(1, 0, 0, 1, -3, -1)" filter="url(#Ellipse_8)">
      <circle id="Ellipse_8-2" data-name="Ellipse 8" cx="20" cy="20" r="20" transform="translate(3 1)" fill="#051a1f"/>
    </g>
    <g id="Audio-2" data-name="Audio" transform="translate(5.634 10.109)">
      <path id="Path_75" data-name="Path 75" d="M24.846,8.336a1.083,1.083,0,0,0-1.754,1.27,3.852,3.852,0,0,1,0,4.416,1.07,1.07,0,0,0,.242,1.512,1,1,0,0,0,.635.212,1.063,1.063,0,0,0,.877-.454,5.965,5.965,0,0,0,0-6.956Z" transform="translate(-5.58 -1.923)" fill="#21d4b4"/>
      <path id="Path_76" data-name="Path 76" d="M28.73,4.317a1.1,1.1,0,1,0-1.694,1.391,8,8,0,0,1,1.845,5.142,8.172,8.172,0,0,1-1.845,5.142,1.076,1.076,0,0,0,.151,1.542,1.03,1.03,0,0,0,.7.242,1.072,1.072,0,0,0,.847-.393,10.225,10.225,0,0,0,0-13.066Z" transform="translate(-6.531 -0.959)" fill="#21d4b4"/>
      <path id="Path_77" data-name="Path 77" d="M32.625.365a1.093,1.093,0,1,0-1.633,1.452,12.2,12.2,0,0,1,0,16.15,1.1,1.1,0,0,0,.091,1.542,1.1,1.1,0,0,0,1.542-.091,14.409,14.409,0,0,0,0-19.054Z" transform="translate(-7.492 0)" fill="#21d4b4"/>
      <path id="Path_78" data-name="Path 78" d="M0,8.451v6.17a1.5,1.5,0,0,0,1.452,1.512l3.466.2a.756.756,0,0,0,.8-.755V7.5a.756.756,0,0,0-.8-.755l-3.466.2A1.5,1.5,0,0,0,0,8.451Z" transform="translate(0 -1.644)" fill="#21d4b4"/>
      <path id="Path_79" data-name="Path 79" d="M16.753.176a1.6,1.6,0,0,0-1.611.092L10.662,3.359A1.524,1.524,0,0,0,10,4.612V15.068a1.524,1.524,0,0,0,.663,1.255l4.448,3.061a1.629,1.629,0,0,0,.9.275,1.453,1.453,0,0,0,.712-.184,1.534,1.534,0,0,0,.836-1.376V1.552A1.453,1.453,0,0,0,16.753.176Z" transform="translate(-2.439 0)" fill="#21d4b4"/>
    </g>
  </g>
</svg>
