<svg xmlns="http://www.w3.org/2000/svg" xmlns:xlink="http://www.w3.org/1999/xlink" width="46" height="46" viewBox="0 0 46 46">
  <defs>
    <filter id="Ellipse_7" x="0" y="0" width="46" height="46" filterUnits="userSpaceOnUse">
      <feOffset dy="2" input="SourceAlpha"/>
      <feGaussianBlur stdDeviation="1" result="blur"/>
      <feFlood flood-opacity="0.161"/>
      <feComposite operator="in" in2="blur"/>
      <feComposite in="SourceGraphic"/>
    </filter>
  </defs>
  <g id="captions" transform="translate(3 1)">
    <g transform="matrix(1, 0, 0, 1, -3, -1)" filter="url(#Ellipse_7)">
      <circle id="Ellipse_7-2" data-name="Ellipse 7" cx="20" cy="20" r="20" transform="translate(3 1)" fill="#051a1f"/>
    </g>
    <g id="captions-2" data-name="captions" transform="translate(6.813 10.109)">
      <path id="Path_83" data-name="Path 83" d="M0,3.956A3.956,3.956,0,0,1,3.956,0H22.419a3.956,3.956,0,0,1,3.956,3.956V15.825a3.956,3.956,0,0,1-3.956,3.956H3.956A3.956,3.956,0,0,1,0,15.825ZM3.956,1.319A2.638,2.638,0,0,0,1.319,3.956V15.825a2.638,2.638,0,0,0,2.638,2.638H22.419a2.638,2.638,0,0,0,2.638-2.638V3.956a2.638,2.638,0,0,0-2.638-2.638Z" fill="#21d4b4" fill-rule="evenodd"/>
      <path id="Path_84" data-name="Path 84" d="M6.509,14.848a3.884,3.884,0,0,0,1.475,1.6l0,0a4.379,4.379,0,0,0,2.269.566,4.142,4.142,0,0,0,2.578-.772,3.371,3.371,0,0,0,1.294-2.158l.078-.423H11.876l-.066.274a1.272,1.272,0,0,1-.5.767,1.816,1.816,0,0,1-1.075.277,1.8,1.8,0,0,1-1.468-.617,2.793,2.793,0,0,1-.547-1.844,2.792,2.792,0,0,1,.547-1.845,1.789,1.789,0,0,1,1.467-.628,1.668,1.668,0,0,1,1.062.3l.008.006a1.335,1.335,0,0,1,.507.812l.063.279H14.2l-.074-.421A3.454,3.454,0,0,0,12.837,8.8,4.059,4.059,0,0,0,10.256,8a4.31,4.31,0,0,0-2.272.579,3.869,3.869,0,0,0-1.476,1.614A5.139,5.139,0,0,0,6,12.519a5.139,5.139,0,0,0,.508,2.327Z" transform="translate(-2.044 -2.725)" fill="#21d4b4" fill-rule="evenodd"/>
      <path id="Path_85" data-name="Path 85" d="M22.54,16.448a3.884,3.884,0,0,1-1.475-1.6v0a5.14,5.14,0,0,1-.508-2.327,5.139,5.139,0,0,1,.508-2.327A3.869,3.869,0,0,1,22.54,8.579,4.31,4.31,0,0,1,24.812,8a4.059,4.059,0,0,1,2.581.8,3.454,3.454,0,0,1,1.291,2.227l.075.421H26.429l-.064-.279a1.335,1.335,0,0,0-.506-.812l-.008-.006a1.668,1.668,0,0,0-1.062-.3,1.789,1.789,0,0,0-1.467.628,2.792,2.792,0,0,0-.547,1.845,2.793,2.793,0,0,0,.547,1.844,2.12,2.12,0,0,0,2.543.341,1.271,1.271,0,0,0,.5-.767l.066-.274h2.329l-.078.423a3.371,3.371,0,0,1-1.294,2.158,4.142,4.142,0,0,1-2.578.772,4.379,4.379,0,0,1-2.269-.566Z" transform="translate(-7.002 -2.725)" fill="#21d4b4" fill-rule="evenodd"/>
    </g>
  </g>
</svg>
