<svg width="194" height="119" viewBox="0 0 194 119" fill="none" xmlns="http://www.w3.org/2000/svg">
<g filter="url(#filter0_d_3347_8113)">
<path d="M5 71.793C5 49.9777 22.6848 32.293 44.5 32.293H190V111.293H44.5C22.6847 111.293 5 93.6082 5 71.793Z" fill="#051A1F"/>
<path d="M4 71.793C4 49.4254 22.1325 31.293 44.5 31.293H190V33.293H44.5C23.237 33.293 6 50.53 6 71.793H4ZM190 112.293H44.5C22.1325 112.293 4 94.1605 4 71.793H6C6 93.0559 23.237 110.293 44.5 110.293H190V112.293ZM44.5 112.293C22.1325 112.293 4 94.1605 4 71.793C4 49.4254 22.1325 31.293 44.5 31.293V33.293C23.237 33.293 6 50.53 6 71.793C6 93.0559 23.237 110.293 44.5 110.293V112.293ZM190 32.293V111.293V32.293Z" fill="#22D4B4"/>
</g>
<g filter="url(#filter1_d_3347_8113)">
<path fill-rule="evenodd" clip-rule="evenodd" d="M54.7395 40.479C65.6413 40.479 74.479 31.6413 74.479 20.7395C74.479 9.83768 65.6413 1 54.7395 1C43.8377 1 35 9.83768 35 20.7395C35 31.6413 43.8377 40.479 54.7395 40.479Z" fill="#051A1F"/>
<path fill-rule="evenodd" clip-rule="evenodd" d="M54.7395 40.479C65.6413 40.479 74.479 31.6413 74.479 20.7395C74.479 9.83768 65.6413 1 54.7395 1C43.8377 1 35 9.83768 35 20.7395C35 31.6413 43.8377 40.479 54.7395 40.479Z" stroke="#22D4B4" stroke-width="2"/>
</g>
<path fill-rule="evenodd" clip-rule="evenodd" d="M44.9678 12.384C44.4439 9.3137 41.8358 9.8358 42.1277 12.6759C42.6853 18.1007 43.8529 21.5114 45.7828 23.5276C45.7828 23.5276 48.3003 17.1175 50.862 15.3264C52.8291 13.9509 54.901 16.0793 54.1661 18.1103C53.6833 19.4446 53.0862 20.514 53.0862 20.514C52.5357 21.7942 52.6313 22.1684 54.0843 21.7481L58.6128 20.3578C60.4761 18.6877 62.2062 17.0738 62.9238 16.4166C63.9776 15.4517 62.9604 14.5994 62.0327 15.2586C61.6585 15.5244 58.7569 17.545 57.9971 18.0599C57.2372 18.575 56.8848 17.8644 57.4693 17.2253C58.0538 16.586 60.6155 14.0053 61.5799 12.8312C62.6397 11.5413 61.3902 10.5902 60.4384 11.5618C59.4868 12.5333 56.5348 15.0502 55.8585 15.6891C55.1823 16.328 54.5417 15.8753 55.0696 15.1301L59.1992 9.30127C60.2866 7.76645 58.7946 6.64352 57.5775 8.15229C56.496 9.49278 53.9168 12.6687 53.1587 13.6457C52.5655 14.4104 51.8675 13.9816 52.3697 13.0868C52.8721 12.1919 53.9018 10.2881 55.5021 7.4719C56.436 5.82834 54.8691 5.11319 53.9679 6.38502C53.5643 6.95482 51.3113 10.4924 48.8215 14.1925C46.7223 17.3122 45.4023 14.9301 44.9678 12.384L44.9678 12.384Z" fill="white"/>
<path fill-rule="evenodd" clip-rule="evenodd" d="M50.2999 17.3023C46.7909 22.5409 45.6289 26.2283 46.3834 29.2516C47.1378 32.2749 48.5649 33.4498 51.0324 33.734C53.783 34.0509 61.8846 33.5596 63.9157 33.4603C65.3429 33.3905 65.1043 32.0852 63.9693 32C63.5116 31.9657 59.9884 31.6679 59.0748 31.5791C58.1612 31.4902 58.3437 30.7183 59.2017 30.5997C60.0596 30.481 63.679 30.1305 65.1708 29.8428C66.8101 29.5267 66.4558 27.997 65.103 28.1371C63.7503 28.2771 59.8714 28.329 58.943 28.3889C58.0145 28.4487 57.8106 27.6912 58.6928 27.4549L65.5927 25.606C67.4096 25.1193 66.9784 23.3023 65.0783 23.6863C63.3902 24.0274 59.3772 24.8246 58.17 25.0924C57.2251 25.3021 56.9617 24.5264 57.9197 24.1585C58.8778 23.7905 60.8858 22.9829 63.9157 21.8374C65.6838 21.1689 64.9346 19.618 63.429 20.0214C62.7545 20.2021 58.7616 21.486 54.4829 22.7437C50.8754 23.804 51.3806 21.128 52.6721 18.8911C54.2294 16.1938 51.8888 14.9301 50.2999 17.3023L50.2999 17.3023Z" fill="white"/>
<g filter="url(#filter2_d_3347_8113)">
<path fill-rule="evenodd" clip-rule="evenodd" d="M150.261 40.479C161.162 40.479 170 31.6414 170 20.7395C170 9.83768 161.162 1 150.261 1C139.359 1 130.521 9.83768 130.521 20.7395C130.521 31.6414 139.359 40.479 150.261 40.479Z" fill="#051A1F"/>
<path fill-rule="evenodd" clip-rule="evenodd" d="M150.261 40.479C161.162 40.479 170 31.6414 170 20.7395C170 9.83768 161.162 1 150.261 1C139.359 1 130.521 9.83768 130.521 20.7395C130.521 31.6414 139.359 40.479 150.261 40.479Z" stroke="#22D4B4" stroke-width="2"/>
</g>
<path fill-rule="evenodd" clip-rule="evenodd" d="M154.288 18.1481C153.992 17.7519 153.449 17.6529 153.055 17.95C152.66 18.2471 152.561 18.7918 152.857 19.1879C153.227 19.7078 153.424 20.3515 153.424 20.9952C153.424 21.6389 153.227 22.2826 152.857 22.8025C152.561 23.1986 152.66 23.7681 153.055 24.0404C153.203 24.1642 153.4 24.2137 153.572 24.2137C153.844 24.2137 154.115 24.0899 154.288 23.8423C154.879 23.0006 155.2 22.0103 155.2 20.9952C155.2 19.9801 154.879 18.9898 154.288 18.1481Z" fill="white"/>
<path fill-rule="evenodd" clip-rule="evenodd" d="M156.68 15.6481C156.36 15.2767 155.793 15.2272 155.423 15.5243C155.053 15.8461 155.003 16.4156 155.299 16.7869C156.286 17.9753 156.804 19.4607 156.804 20.9957C156.804 22.5307 156.261 24.0162 155.299 25.2045C154.979 25.5759 155.028 26.1454 155.423 26.4672C155.595 26.6157 155.793 26.6653 155.99 26.6653C156.237 26.6653 156.508 26.5662 156.68 26.3434C157.913 24.8579 158.604 22.9516 158.604 20.9957C158.604 19.0399 157.913 17.1583 156.68 15.6481Z" fill="white"/>
<path fill-rule="evenodd" clip-rule="evenodd" d="M159.072 13.1969C158.752 12.8255 158.184 12.8007 157.814 13.1226C157.445 13.4444 157.42 14.0139 157.741 14.3852C159.343 16.2173 160.231 18.5445 160.231 20.9955C160.231 23.4466 159.343 25.7738 157.741 27.6059C157.42 27.9772 157.445 28.5467 157.814 28.8685C157.987 29.0171 158.184 29.0913 158.406 29.0913C158.653 29.0913 158.9 28.9923 159.072 28.7942C160.971 26.6403 162.007 23.8674 162.007 20.9955C162.007 18.1237 160.971 15.3508 159.072 13.1969Z" fill="white"/>
<path fill-rule="evenodd" clip-rule="evenodd" d="M138.579 18.4707V23.5213C138.579 24.1898 139.097 24.7344 139.763 24.7591L142.588 24.9201C142.942 24.9402 143.24 24.6578 143.24 24.3021V17.6898C143.24 17.3342 142.942 17.0517 142.588 17.0718L139.763 17.2328C139.097 17.2575 138.579 17.8022 138.579 18.4707Z" fill="white"/>
<path fill-rule="evenodd" clip-rule="evenodd" d="M150.251 13.0423C149.821 12.817 149.316 12.8671 148.937 13.1175L145.284 15.6481C144.945 15.8822 144.744 16.2653 144.744 16.6742V25.233C144.744 25.6424 144.946 26.0259 145.285 26.26L148.912 28.7656C149.139 28.9159 149.392 28.991 149.645 28.991C149.847 28.991 150.049 28.9409 150.226 28.8408C150.655 28.6154 150.908 28.1898 150.908 27.7141V14.169C150.933 13.6933 150.68 13.2677 150.251 13.0423Z" fill="white"/>
<g filter="url(#filter3_d_3347_8113)">
<path fill-rule="evenodd" clip-rule="evenodd" d="M102.5 40.479C113.402 40.479 122.24 31.6414 122.24 20.7395C122.24 9.83768 113.402 1 102.5 1C91.5982 1 82.7605 9.83768 82.7605 20.7395C82.7605 31.6414 91.5982 40.479 102.5 40.479Z" fill="#051A1F"/>
<path fill-rule="evenodd" clip-rule="evenodd" d="M102.5 40.479C113.402 40.479 122.24 31.6414 122.24 20.7395C122.24 9.83768 113.402 1 102.5 1C91.5982 1 82.7605 9.83768 82.7605 20.7395C82.7605 31.6414 91.5982 40.479 102.5 40.479Z" stroke="#22D4B4" stroke-width="2"/>
</g>
<path d="M90.5413 8.75119H103.343V21.5536H90.5413V8.75119Z" fill="white"/>
<path d="M101.621 19.9322H114.355V32.8698H101.621V19.9322Z" fill="white"/>
<path d="M102.252 33.376C101.395 33.146 100.982 32.6061 100.918 31.7247C101.106 28.1775 100.674 24.3826 100.918 20.8641C100.994 19.7567 101.577 19.2296 102.669 19.161C104.645 19.0372 106.751 19.2587 108.741 19.1635C109.226 19.1842 109.413 19.7576 108.892 19.9062L102.574 19.9047C101.951 19.9629 101.706 20.2516 101.658 20.8645V31.6754C101.679 32.1491 101.916 32.5814 102.425 32.6362C106.234 32.5962 110.066 32.7167 113.862 32.5755C114.207 32.4729 114.363 32.1659 114.394 31.8239L114.358 20.5053C114.219 20.0799 113.851 19.9353 113.431 19.9022C112.482 19.8277 111.217 20.0404 110.324 19.9008C109.908 19.8356 109.915 19.2306 110.518 19.1635C111.193 19.0885 113.276 19.0914 113.909 19.2267C114.489 19.3505 115.051 19.8943 115.132 20.4959V32.0929C114.958 32.7606 114.518 33.2018 113.849 33.376H102.252Z" fill="#051A1F"/>
<path d="M102.746 8.10938C103.614 8.34181 104.011 8.87724 104.077 9.76305C104.272 12.3593 103.931 15.1875 104.08 17.8079C104.129 18.3399 103.522 18.5703 103.341 18.0497L103.34 9.80994C103.324 9.32188 103.054 8.87083 102.525 8.84763L91.284 8.86145C90.8823 8.94534 90.6568 9.2138 90.6059 9.61451L90.604 20.7693C90.6272 21.2974 91.0782 21.5673 91.5662 21.5836L99.8059 21.5851C100.33 21.7701 100.09 22.3742 99.564 22.3238C96.9432 22.1758 94.1156 22.5163 91.5194 22.3213C90.6316 22.2547 90.1001 21.854 89.8657 20.9894V9.39245C90.0399 8.72377 90.4811 8.28358 91.1488 8.10938H102.746Z" fill="#051A1F"/>
<path d="M100.599 12.0573C100.643 12.0573 100.841 12.2246 100.86 12.2897C101.108 13.1178 99.7797 12.6436 99.6109 12.8464C99.5433 12.9278 99.3839 13.5624 99.3148 13.7347C98.8776 14.8223 98.2326 15.8907 97.4687 16.777C98.058 17.5084 98.8756 18.0132 99.64 18.5432C99.7925 18.8773 99.609 19.1818 99.2201 19.1127C98.9862 19.0712 98.0249 18.3202 97.787 18.1257C97.5067 17.8962 97.2506 17.6406 96.9896 17.3904C96.92 17.3781 96.1018 18.1603 95.9587 18.2738C95.7238 18.4608 94.8721 19.1004 94.6268 19.1171C94.3485 19.1359 94.1304 18.8985 94.2448 18.634C94.3312 18.4346 95.0369 18.0438 95.2609 17.8726C95.6784 17.5528 96.0752 17.2078 96.4236 16.8125C96.0115 16.2199 95.5654 15.6563 95.2185 15.0192C95.1144 14.8277 94.7408 14.1344 94.7605 13.9686C94.799 13.6448 95.218 13.5225 95.4425 13.8077C95.599 14.0061 95.8319 14.6086 95.9937 14.885C96.275 15.3651 96.6121 15.8093 96.9462 16.2514C97.7994 15.2433 98.4493 14.0589 98.846 12.797H93.2944C93.0492 12.797 92.8636 12.2053 93.2673 12.079L96.5765 12.0573C96.4166 11.0165 97.5048 10.9869 97.3163 12.0573H100.599Z" fill="#051A1F"/>
<path d="M111.163 30.1336C110.475 30.824 110.161 28.6217 109.901 28.4652L106.184 28.4391C106.073 28.4657 105.674 29.9082 105.482 30.1165C105.199 30.4219 104.692 30.0207 104.902 29.6343L107.654 22.5167C107.939 22.2463 108.416 22.3213 108.556 22.7048L111.224 29.885C111.265 29.9816 111.209 30.0872 111.163 30.1336ZM109.654 27.7008L108.05 23.5057L106.447 27.7008H109.654Z" fill="#051A1F"/>
<path d="M98.6003 28.2931C98.4226 28.0478 97.8078 27.8188 97.7712 27.5168C97.7377 27.2409 98.0091 27.0455 98.2687 27.1181L100.059 28.487C100.092 28.601 100.102 28.7244 100.055 28.8349C100.015 28.9287 98.6388 29.9689 98.4488 30.0908C97.9602 30.4042 97.5739 29.9443 97.8818 29.5727C98.0343 29.3886 98.4108 29.2559 98.5509 29.0333H97.0458C95.8506 29.0333 94.6243 27.8213 94.3322 26.7134C94.1565 26.0477 94.1244 24.2316 94.2073 23.5294C94.2562 23.1154 94.7141 23.0024 94.9268 23.3547C95.0897 24.9428 94.4521 26.8841 96.0579 27.8988C96.2755 28.0364 96.8544 28.2926 97.0952 28.2926L98.6003 28.2931Z" fill="white"/>
<path d="M106.397 13.1923C106.575 13.4376 107.19 13.6666 107.226 13.9686C107.26 14.2444 106.988 14.4399 106.729 14.3673L104.939 12.9984C104.862 12.7373 104.921 12.6668 105.091 12.5034C105.239 12.3623 106.677 11.2954 106.779 11.2751C106.975 11.2371 107.202 11.4 107.226 11.5998C107.273 11.9862 106.631 12.1713 106.446 12.4521H107.951C109.146 12.4521 110.373 13.6641 110.665 14.772C110.841 15.4377 110.873 17.2537 110.79 17.956C110.741 18.37 110.283 18.483 110.07 18.1307C109.907 16.5426 110.545 14.6012 108.939 13.5866C108.722 13.4489 108.143 13.1928 107.902 13.1928L106.397 13.1923Z" fill="white"/>
<path d="M36.3123 97.625V88.525H38.0673V96.26H42.0583V97.625H36.3123ZM45.7448 97.781C45.2074 97.781 44.7611 97.6943 44.4058 97.521C44.0504 97.339 43.7861 97.0963 43.6128 96.793C43.4394 96.481 43.3528 96.1473 43.3528 95.792C43.3528 95.3847 43.4568 95.0293 43.6648 94.726C43.8728 94.4227 44.1804 94.1843 44.5878 94.011C45.0038 93.8377 45.5238 93.751 46.1478 93.751H47.7468C47.7468 93.4217 47.7078 93.1487 47.6298 92.932C47.5518 92.7153 47.4218 92.555 47.2398 92.451C47.0578 92.347 46.8151 92.295 46.5118 92.295C46.1824 92.295 45.9051 92.3643 45.6798 92.503C45.4544 92.6417 45.3158 92.854 45.2638 93.14H43.5608C43.6041 92.672 43.7558 92.269 44.0158 91.931C44.2758 91.593 44.6224 91.333 45.0558 91.151C45.4891 90.9603 45.9744 90.865 46.5118 90.865C47.1358 90.865 47.6688 90.969 48.1108 91.177C48.5614 91.3763 48.9038 91.6753 49.1378 92.074C49.3804 92.464 49.5018 92.9407 49.5018 93.504V97.625H48.0328L47.8378 96.624C47.7424 96.7887 47.6298 96.9447 47.4998 97.092C47.3698 97.2307 47.2181 97.352 47.0448 97.456C46.8714 97.56 46.6764 97.638 46.4598 97.69C46.2431 97.7507 46.0048 97.781 45.7448 97.781ZM46.1608 96.429C46.3861 96.429 46.5854 96.39 46.7588 96.312C46.9408 96.2253 47.0924 96.1083 47.2138 95.961C47.3438 95.8137 47.4478 95.6447 47.5258 95.454C47.6038 95.2633 47.6558 95.064 47.6818 94.856V94.83H46.3428C46.0828 94.83 45.8661 94.8647 45.6928 94.934C45.5281 94.9947 45.4068 95.0857 45.3288 95.207C45.2508 95.3283 45.2118 95.4713 45.2118 95.636C45.2118 95.8007 45.2508 95.9437 45.3288 96.065C45.4068 96.1863 45.5151 96.2773 45.6538 96.338C45.8011 96.3987 45.9701 96.429 46.1608 96.429ZM51.1903 97.625V91.021H52.7243L52.8543 92.074C53.0537 91.71 53.3353 91.4197 53.6993 91.203C54.072 90.9777 54.514 90.865 55.0253 90.865C55.5627 90.865 56.0177 90.9777 56.3903 91.203C56.763 91.4197 57.049 91.7447 57.2483 92.178C57.4477 92.6027 57.5473 93.1227 57.5473 93.738V97.625H55.7923V93.907C55.7923 93.4043 55.6797 93.0187 55.4543 92.75C55.2377 92.4813 54.904 92.347 54.4533 92.347C54.1673 92.347 53.9073 92.412 53.6733 92.542C53.448 92.672 53.2703 92.8627 53.1403 93.114C53.0103 93.3653 52.9453 93.673 52.9453 94.037V97.625H51.1903ZM62.0475 100.641C61.4148 100.641 60.8645 100.563 60.3965 100.407C59.9285 100.26 59.5645 100.03 59.3045 99.718C59.0531 99.4147 58.9275 99.0377 58.9275 98.587C58.9275 98.275 59.0055 97.9847 59.1615 97.716C59.3175 97.4473 59.5428 97.2047 59.8375 96.988C60.1408 96.7627 60.5135 96.572 60.9555 96.416L61.6445 97.274C61.2371 97.404 60.9425 97.5687 60.7605 97.768C60.5871 97.9673 60.5005 98.1797 60.5005 98.405C60.5005 98.6043 60.5655 98.7733 60.6955 98.912C60.8341 99.0507 61.0161 99.1503 61.2415 99.211C61.4755 99.2803 61.7355 99.315 62.0215 99.315C62.3075 99.315 62.5545 99.2803 62.7625 99.211C62.9705 99.1417 63.1308 99.0377 63.2435 98.899C63.3648 98.769 63.4255 98.613 63.4255 98.431C63.4255 98.1883 63.3431 97.9933 63.1785 97.846C63.0138 97.6987 62.6801 97.6077 62.1775 97.573C61.7268 97.5383 61.3281 97.4907 60.9815 97.43C60.6435 97.3607 60.3445 97.2827 60.0845 97.196C59.8245 97.1007 59.6035 96.9967 59.4215 96.884C59.2481 96.7713 59.1051 96.6587 58.9925 96.546V96.247L60.3835 94.765L61.6575 95.155L59.9935 96.767L60.5005 95.896C60.5958 95.9567 60.6868 96.013 60.7735 96.065C60.8688 96.1083 60.9858 96.1517 61.1245 96.195C61.2631 96.2297 61.4451 96.2643 61.6705 96.299C61.9045 96.3337 62.1991 96.3683 62.5545 96.403C63.1265 96.4463 63.5945 96.5503 63.9585 96.715C64.3311 96.871 64.6041 97.0877 64.7775 97.365C64.9508 97.6423 65.0375 97.9847 65.0375 98.392C65.0375 98.782 64.9291 99.146 64.7125 99.484C64.5045 99.8307 64.1795 100.108 63.7375 100.316C63.2955 100.533 62.7321 100.641 62.0475 100.641ZM62.0475 95.675C61.5015 95.675 61.0291 95.571 60.6305 95.363C60.2405 95.1463 59.9371 94.856 59.7205 94.492C59.5125 94.128 59.4085 93.7207 59.4085 93.27C59.4085 92.8193 59.5125 92.4163 59.7205 92.061C59.9371 91.697 60.2405 91.4067 60.6305 91.19C61.0291 90.9733 61.5015 90.865 62.0475 90.865C62.6021 90.865 63.0745 90.9733 63.4645 91.19C63.8631 91.4067 64.1665 91.697 64.3745 92.061C64.5825 92.4163 64.6865 92.8193 64.6865 93.27C64.6865 93.7207 64.5825 94.128 64.3745 94.492C64.1665 94.856 63.8631 95.1463 63.4645 95.363C63.0745 95.571 62.6021 95.675 62.0475 95.675ZM62.0475 94.336C62.3855 94.336 62.6585 94.2493 62.8665 94.076C63.0745 93.894 63.1785 93.6297 63.1785 93.283C63.1785 92.9363 63.0745 92.6763 62.8665 92.503C62.6585 92.321 62.3855 92.23 62.0475 92.23C61.7095 92.23 61.4321 92.321 61.2155 92.503C61.0075 92.6763 60.9035 92.9363 60.9035 93.283C60.9035 93.6297 61.0075 93.894 61.2155 94.076C61.4321 94.2493 61.7095 94.336 62.0475 94.336ZM63.1525 92.256L62.8665 91.021H65.5575V92.061L63.1525 92.256ZM69.4276 97.781C68.8989 97.781 68.4439 97.6727 68.0626 97.456C67.6899 97.2393 67.4039 96.9187 67.2046 96.494C67.0053 96.0693 66.9056 95.5493 66.9056 94.934V91.021H68.6606V94.739C68.6606 95.259 68.7733 95.649 68.9986 95.909C69.2239 96.169 69.5619 96.299 70.0126 96.299C70.2986 96.299 70.5543 96.234 70.7796 96.104C71.0049 95.974 71.1826 95.7877 71.3126 95.545C71.4513 95.2937 71.5206 94.986 71.5206 94.622V91.021H73.2756V97.625H71.7286L71.5856 96.572C71.3949 96.936 71.1176 97.2307 70.7536 97.456C70.3896 97.6727 69.9476 97.781 69.4276 97.781ZM77.2037 97.781C76.6664 97.781 76.2201 97.6943 75.8647 97.521C75.5094 97.339 75.2451 97.0963 75.0717 96.793C74.8984 96.481 74.8117 96.1473 74.8117 95.792C74.8117 95.3847 74.9157 95.0293 75.1237 94.726C75.3317 94.4227 75.6394 94.1843 76.0467 94.011C76.4627 93.8377 76.9827 93.751 77.6067 93.751H79.2057C79.2057 93.4217 79.1667 93.1487 79.0887 92.932C79.0107 92.7153 78.8807 92.555 78.6987 92.451C78.5167 92.347 78.2741 92.295 77.9707 92.295C77.6414 92.295 77.3641 92.3643 77.1387 92.503C76.9134 92.6417 76.7747 92.854 76.7227 93.14H75.0197C75.0631 92.672 75.2147 92.269 75.4747 91.931C75.7347 91.593 76.0814 91.333 76.5147 91.151C76.9481 90.9603 77.4334 90.865 77.9707 90.865C78.5947 90.865 79.1277 90.969 79.5697 91.177C80.0204 91.3763 80.3627 91.6753 80.5967 92.074C80.8394 92.464 80.9607 92.9407 80.9607 93.504V97.625H79.4917L79.2967 96.624C79.2014 96.7887 79.0887 96.9447 78.9587 97.092C78.8287 97.2307 78.6771 97.352 78.5037 97.456C78.3304 97.56 78.1354 97.638 77.9187 97.69C77.7021 97.7507 77.4637 97.781 77.2037 97.781ZM77.6197 96.429C77.8451 96.429 78.0444 96.39 78.2177 96.312C78.3997 96.2253 78.5514 96.1083 78.6727 95.961C78.8027 95.8137 78.9067 95.6447 78.9847 95.454C79.0627 95.2633 79.1147 95.064 79.1407 94.856V94.83H77.8017C77.5417 94.83 77.3251 94.8647 77.1517 94.934C76.9871 94.9947 76.8657 95.0857 76.7877 95.207C76.7097 95.3283 76.6707 95.4713 76.6707 95.636C76.6707 95.8007 76.7097 95.9437 76.7877 96.065C76.8657 96.1863 76.9741 96.2773 77.1127 96.338C77.2601 96.3987 77.4291 96.429 77.6197 96.429ZM85.4703 100.641C84.8377 100.641 84.2873 100.563 83.8193 100.407C83.3513 100.26 82.9873 100.03 82.7273 99.718C82.476 99.4147 82.3503 99.0377 82.3503 98.587C82.3503 98.275 82.4283 97.9847 82.5843 97.716C82.7403 97.4473 82.9657 97.2047 83.2603 96.988C83.5637 96.7627 83.9363 96.572 84.3783 96.416L85.0673 97.274C84.66 97.404 84.3653 97.5687 84.1833 97.768C84.01 97.9673 83.9233 98.1797 83.9233 98.405C83.9233 98.6043 83.9883 98.7733 84.1183 98.912C84.257 99.0507 84.439 99.1503 84.6643 99.211C84.8983 99.2803 85.1583 99.315 85.4443 99.315C85.7303 99.315 85.9773 99.2803 86.1853 99.211C86.3933 99.1417 86.5537 99.0377 86.6663 98.899C86.7877 98.769 86.8483 98.613 86.8483 98.431C86.8483 98.1883 86.766 97.9933 86.6013 97.846C86.4367 97.6987 86.103 97.6077 85.6003 97.573C85.1497 97.5383 84.751 97.4907 84.4043 97.43C84.0663 97.3607 83.7673 97.2827 83.5073 97.196C83.2473 97.1007 83.0263 96.9967 82.8443 96.884C82.671 96.7713 82.528 96.6587 82.4153 96.546V96.247L83.8063 94.765L85.0803 95.155L83.4163 96.767L83.9233 95.896C84.0187 95.9567 84.1097 96.013 84.1963 96.065C84.2917 96.1083 84.4087 96.1517 84.5473 96.195C84.686 96.2297 84.868 96.2643 85.0933 96.299C85.3273 96.3337 85.622 96.3683 85.9773 96.403C86.5493 96.4463 87.0173 96.5503 87.3813 96.715C87.754 96.871 88.027 97.0877 88.2003 97.365C88.3737 97.6423 88.4603 97.9847 88.4603 98.392C88.4603 98.782 88.352 99.146 88.1353 99.484C87.9273 99.8307 87.6023 100.108 87.1603 100.316C86.7183 100.533 86.155 100.641 85.4703 100.641ZM85.4703 95.675C84.9243 95.675 84.452 95.571 84.0533 95.363C83.6633 95.1463 83.36 94.856 83.1433 94.492C82.9353 94.128 82.8313 93.7207 82.8313 93.27C82.8313 92.8193 82.9353 92.4163 83.1433 92.061C83.36 91.697 83.6633 91.4067 84.0533 91.19C84.452 90.9733 84.9243 90.865 85.4703 90.865C86.025 90.865 86.4973 90.9733 86.8873 91.19C87.286 91.4067 87.5893 91.697 87.7973 92.061C88.0053 92.4163 88.1093 92.8193 88.1093 93.27C88.1093 93.7207 88.0053 94.128 87.7973 94.492C87.5893 94.856 87.286 95.1463 86.8873 95.363C86.4973 95.571 86.025 95.675 85.4703 95.675ZM85.4703 94.336C85.8083 94.336 86.0813 94.2493 86.2893 94.076C86.4973 93.894 86.6013 93.6297 86.6013 93.283C86.6013 92.9363 86.4973 92.6763 86.2893 92.503C86.0813 92.321 85.8083 92.23 85.4703 92.23C85.1323 92.23 84.855 92.321 84.6383 92.503C84.4303 92.6763 84.3263 92.9363 84.3263 93.283C84.3263 93.6297 84.4303 93.894 84.6383 94.076C84.855 94.2493 85.1323 94.336 85.4703 94.336ZM86.5753 92.256L86.2893 91.021H88.9803V92.061L86.5753 92.256ZM93.2596 97.781C92.6096 97.781 92.0332 97.638 91.5306 97.352C91.0279 97.066 90.6336 96.6673 90.3476 96.156C90.0616 95.6447 89.9186 95.0553 89.9186 94.388C89.9186 93.6947 90.0572 93.0837 90.3346 92.555C90.6206 92.0263 91.0149 91.6147 91.5176 91.32C92.0202 91.0167 92.6052 90.865 93.2726 90.865C93.9226 90.865 94.4902 91.008 94.9756 91.294C95.4609 91.58 95.8336 91.97 96.0936 92.464C96.3622 92.9493 96.4966 93.504 96.4966 94.128C96.4966 94.2147 96.4966 94.3143 96.4966 94.427C96.4966 94.531 96.4879 94.6393 96.4706 94.752H91.1796V93.673H94.7286C94.7112 93.2483 94.5639 92.9103 94.2866 92.659C94.0179 92.4077 93.6799 92.282 93.2726 92.282C92.9779 92.282 92.7049 92.3513 92.4536 92.49C92.2109 92.6287 92.0159 92.841 91.8686 93.127C91.7212 93.4043 91.6476 93.7553 91.6476 94.18V94.557C91.6476 94.921 91.7126 95.2373 91.8426 95.506C91.9812 95.7747 92.1719 95.9827 92.4146 96.13C92.6572 96.2773 92.9346 96.351 93.2466 96.351C93.5846 96.351 93.8532 96.286 94.0526 96.156C94.2606 96.0173 94.4209 95.8397 94.5336 95.623H96.3146C96.1932 96.0303 95.9896 96.3987 95.7036 96.728C95.4176 97.0487 95.0666 97.3043 94.6506 97.495C94.2432 97.6857 93.7796 97.781 93.2596 97.781ZM103.177 97.625V89.942H100.525V88.525H107.584V89.942H104.932V97.625H103.177ZM108.205 97.625V91.021H109.765L109.921 92.217C110.086 91.931 110.285 91.6883 110.519 91.489C110.762 91.2897 111.039 91.138 111.351 91.034C111.672 90.9213 112.023 90.865 112.404 90.865V92.724H111.741C111.49 92.724 111.251 92.7543 111.026 92.815C110.809 92.867 110.619 92.9623 110.454 93.101C110.298 93.231 110.177 93.413 110.09 93.647C110.003 93.881 109.96 94.1713 109.96 94.518V97.625H108.205ZM115.785 97.781C115.247 97.781 114.801 97.6943 114.446 97.521C114.09 97.339 113.826 97.0963 113.653 96.793C113.479 96.481 113.393 96.1473 113.393 95.792C113.393 95.3847 113.497 95.0293 113.705 94.726C113.913 94.4227 114.22 94.1843 114.628 94.011C115.044 93.8377 115.564 93.751 116.188 93.751H117.787C117.787 93.4217 117.748 93.1487 117.67 92.932C117.592 92.7153 117.462 92.555 117.28 92.451C117.098 92.347 116.855 92.295 116.552 92.295C116.222 92.295 115.945 92.3643 115.72 92.503C115.494 92.6417 115.356 92.854 115.304 93.14H113.601C113.644 92.672 113.796 92.269 114.056 91.931C114.316 91.593 114.662 91.333 115.096 91.151C115.529 90.9603 116.014 90.865 116.552 90.865C117.176 90.865 117.709 90.969 118.151 91.177C118.601 91.3763 118.944 91.6753 119.178 92.074C119.42 92.464 119.542 92.9407 119.542 93.504V97.625H118.073L117.878 96.624C117.782 96.7887 117.67 96.9447 117.54 97.092C117.41 97.2307 117.258 97.352 117.085 97.456C116.911 97.56 116.716 97.638 116.5 97.69C116.283 97.7507 116.045 97.781 115.785 97.781ZM116.201 96.429C116.426 96.429 116.625 96.39 116.799 96.312C116.981 96.2253 117.132 96.1083 117.254 95.961C117.384 95.8137 117.488 95.6447 117.566 95.454C117.644 95.2633 117.696 95.064 117.722 94.856V94.83H116.383C116.123 94.83 115.906 94.8647 115.733 94.934C115.568 94.9947 115.447 95.0857 115.369 95.207C115.291 95.3283 115.252 95.4713 115.252 95.636C115.252 95.8007 115.291 95.9437 115.369 96.065C115.447 96.1863 115.555 96.2773 115.694 96.338C115.841 96.3987 116.01 96.429 116.201 96.429ZM121.23 97.625V91.021H122.764L122.894 92.074C123.094 91.71 123.375 91.4197 123.739 91.203C124.112 90.9777 124.554 90.865 125.065 90.865C125.603 90.865 126.058 90.9777 126.43 91.203C126.803 91.4197 127.089 91.7447 127.288 92.178C127.488 92.6027 127.587 93.1227 127.587 93.738V97.625H125.832V93.907C125.832 93.4043 125.72 93.0187 125.494 92.75C125.278 92.4813 124.944 92.347 124.493 92.347C124.207 92.347 123.947 92.412 123.713 92.542C123.488 92.672 123.31 92.8627 123.18 93.114C123.05 93.3653 122.985 93.673 122.985 94.037V97.625H121.23ZM131.932 97.781C131.316 97.781 130.788 97.6857 130.346 97.495C129.912 97.3043 129.574 97.04 129.332 96.702C129.089 96.364 128.946 95.9783 128.903 95.545H130.658C130.692 95.7097 130.757 95.8613 130.853 96C130.957 96.13 131.095 96.2383 131.269 96.325C131.451 96.403 131.663 96.442 131.906 96.442C132.14 96.442 132.33 96.4117 132.478 96.351C132.634 96.2817 132.746 96.1907 132.816 96.078C132.894 95.9653 132.933 95.844 132.933 95.714C132.933 95.5233 132.881 95.3803 132.777 95.285C132.673 95.181 132.521 95.0987 132.322 95.038C132.122 94.9687 131.88 94.908 131.594 94.856C131.264 94.7953 130.948 94.7217 130.645 94.635C130.341 94.5397 130.073 94.4227 129.839 94.284C129.605 94.1367 129.418 93.9547 129.28 93.738C129.15 93.5127 129.085 93.2353 129.085 92.906C129.085 92.5247 129.189 92.178 129.397 91.866C129.613 91.554 129.921 91.3113 130.32 91.138C130.727 90.956 131.208 90.865 131.763 90.865C132.56 90.865 133.188 91.0427 133.648 91.398C134.116 91.7533 134.389 92.2387 134.467 92.854H132.816C132.772 92.6547 132.66 92.4987 132.478 92.386C132.296 92.2733 132.053 92.217 131.75 92.217C131.438 92.217 131.199 92.2733 131.035 92.386C130.87 92.4987 130.788 92.646 130.788 92.828C130.788 92.9493 130.835 93.062 130.931 93.166C131.035 93.2613 131.186 93.3437 131.386 93.413C131.585 93.4823 131.836 93.5473 132.14 93.608C132.668 93.712 133.119 93.829 133.492 93.959C133.873 94.089 134.168 94.284 134.376 94.544C134.592 94.7953 134.701 95.1507 134.701 95.61C134.701 96.0433 134.588 96.4247 134.363 96.754C134.137 97.0747 133.817 97.326 133.401 97.508C132.985 97.69 132.495 97.781 131.932 97.781ZM136.198 97.625V88.265H137.953V97.625H136.198ZM141.874 97.781C141.336 97.781 140.89 97.6943 140.535 97.521C140.179 97.339 139.915 97.0963 139.742 96.793C139.568 96.481 139.482 96.1473 139.482 95.792C139.482 95.3847 139.586 95.0293 139.794 94.726C140.002 94.4227 140.309 94.1843 140.717 94.011C141.133 93.8377 141.653 93.751 142.277 93.751H143.876C143.876 93.4217 143.837 93.1487 143.759 92.932C143.681 92.7153 143.551 92.555 143.369 92.451C143.187 92.347 142.944 92.295 142.641 92.295C142.311 92.295 142.034 92.3643 141.809 92.503C141.583 92.6417 141.445 92.854 141.393 93.14H139.69C139.733 92.672 139.885 92.269 140.145 91.931C140.405 91.593 140.751 91.333 141.185 91.151C141.618 90.9603 142.103 90.865 142.641 90.865C143.265 90.865 143.798 90.969 144.24 91.177C144.69 91.3763 145.033 91.6753 145.267 92.074C145.509 92.464 145.631 92.9407 145.631 93.504V97.625H144.162L143.967 96.624C143.871 96.7887 143.759 96.9447 143.629 97.092C143.499 97.2307 143.347 97.352 143.174 97.456C143 97.56 142.805 97.638 142.589 97.69C142.372 97.7507 142.134 97.781 141.874 97.781ZM142.29 96.429C142.515 96.429 142.714 96.39 142.888 96.312C143.07 96.2253 143.221 96.1083 143.343 95.961C143.473 95.8137 143.577 95.6447 143.655 95.454C143.733 95.2633 143.785 95.064 143.811 94.856V94.83H142.472C142.212 94.83 141.995 94.8647 141.822 94.934C141.657 94.9947 141.536 95.0857 141.458 95.207C141.38 95.3283 141.341 95.4713 141.341 95.636C141.341 95.8007 141.38 95.9437 141.458 96.065C141.536 96.1863 141.644 96.2773 141.783 96.338C141.93 96.3987 142.099 96.429 142.29 96.429ZM150.207 97.625C149.748 97.625 149.345 97.5557 148.998 97.417C148.66 97.2697 148.396 97.0313 148.205 96.702C148.014 96.364 147.919 95.9047 147.919 95.324V92.49H146.788V91.021H147.919L148.114 89.201H149.674V91.021H151.403V92.49H149.674V95.35C149.674 95.6447 149.739 95.8483 149.869 95.961C149.999 96.0737 150.22 96.13 150.532 96.13H151.403V97.625H150.207ZM152.944 97.625V91.021H154.699V97.625H152.944ZM153.828 90.137C153.508 90.137 153.248 90.046 153.048 89.864C152.849 89.6733 152.749 89.435 152.749 89.149C152.749 88.863 152.849 88.629 153.048 88.447C153.248 88.2563 153.508 88.161 153.828 88.161C154.149 88.161 154.409 88.2563 154.608 88.447C154.816 88.629 154.92 88.863 154.92 89.149C154.92 89.435 154.816 89.6733 154.608 89.864C154.409 90.046 154.149 90.137 153.828 90.137ZM159.579 97.781C158.947 97.781 158.379 97.6337 157.876 97.339C157.382 97.0443 156.988 96.637 156.693 96.117C156.407 95.597 156.264 94.999 156.264 94.323C156.264 93.6383 156.407 93.036 156.693 92.516C156.988 91.996 157.387 91.593 157.889 91.307C158.392 91.0123 158.96 90.865 159.592 90.865C160.225 90.865 160.788 91.0123 161.282 91.307C161.785 91.593 162.179 91.996 162.465 92.516C162.76 93.036 162.907 93.6383 162.907 94.323C162.907 94.999 162.76 95.597 162.465 96.117C162.179 96.637 161.785 97.0443 161.282 97.339C160.788 97.6337 160.221 97.781 159.579 97.781ZM159.579 96.26C159.874 96.26 160.134 96.1907 160.359 96.052C160.593 95.9047 160.775 95.688 160.905 95.402C161.044 95.1073 161.113 94.7477 161.113 94.323C161.113 93.8897 161.044 93.53 160.905 93.244C160.775 92.958 160.593 92.7457 160.359 92.607C160.134 92.4597 159.878 92.386 159.592 92.386C159.306 92.386 159.046 92.4597 158.812 92.607C158.587 92.7457 158.405 92.958 158.266 93.244C158.128 93.53 158.058 93.8897 158.058 94.323C158.058 94.7477 158.123 95.1073 158.253 95.402C158.392 95.688 158.574 95.9047 158.799 96.052C159.033 96.1907 159.293 96.26 159.579 96.26ZM164.433 97.625V91.021H165.967L166.097 92.074C166.296 91.71 166.578 91.4197 166.942 91.203C167.314 90.9777 167.756 90.865 168.268 90.865C168.805 90.865 169.26 90.9777 169.633 91.203C170.005 91.4197 170.291 91.7447 170.491 92.178C170.69 92.6027 170.79 93.1227 170.79 93.738V97.625H169.035V93.907C169.035 93.4043 168.922 93.0187 168.697 92.75C168.48 92.4813 168.146 92.347 167.696 92.347C167.41 92.347 167.15 92.412 166.916 92.542C166.69 92.672 166.513 92.8627 166.383 93.114C166.253 93.3653 166.188 93.673 166.188 94.037V97.625H164.433Z" fill="white"/>
<path d="M54.4644 49.8013C52.6807 48.8812 50.4158 48.4141 47.7545 48.4141H35.7078C35.3114 48.4141 35 48.7255 35 49.1219V80.8308C35 81.2272 35.3114 81.5386 35.7078 81.5386H42.0496C42.446 81.5386 42.7574 81.2272 42.7574 80.8308V69.7185H47.7545C50.4866 69.7185 52.7798 69.2231 54.5776 68.2322C56.3754 67.2271 57.7344 65.9106 58.5979 64.2969C59.4472 62.7114 59.8861 60.9561 59.8861 59.0875C59.8861 57.0774 59.4331 55.2372 58.5554 53.6517C57.6636 52.0379 56.2905 50.7498 54.4785 49.8155L54.4644 49.8013ZM51.9871 59.0734C51.9871 60.3474 51.6473 61.3241 50.9395 62.0744C50.2459 62.7963 49.0427 63.1644 47.3581 63.1644H42.7716V54.9823H47.3581C49.0568 54.9823 50.2601 55.3362 50.9537 56.044C51.6615 56.766 52.0012 57.7569 52.0012 59.0875L51.9871 59.0734Z" fill="white"/>
<path d="M70.0504 48.3984H63.7085C63.3176 48.3984 63.0007 48.7153 63.0007 49.1062V80.8152C63.0007 81.2061 63.3176 81.523 63.7085 81.523H70.0504C70.4413 81.523 70.7582 81.2061 70.7582 80.8152V49.1062C70.7582 48.7153 70.4413 48.3984 70.0504 48.3984Z" fill="white"/>
<path d="M134.827 50.0394C132.35 48.5955 129.462 47.8594 126.249 47.8594C123.035 47.8594 120.19 48.5955 117.741 50.0394C115.278 51.4833 113.324 53.5217 111.923 56.0839C110.522 58.6319 109.828 61.6188 109.828 64.9596C109.828 68.3003 110.536 71.2872 111.923 73.8352C113.324 76.3974 115.278 78.4359 117.741 79.8798C120.19 81.3237 123.064 82.0598 126.249 82.0598C129.434 82.0598 132.364 81.3237 134.827 79.8798C137.304 78.4359 139.244 76.3974 140.617 73.8211C141.976 71.273 142.67 68.2862 142.67 64.9454C142.67 61.6046 141.976 58.6319 140.617 56.0697C139.244 53.5075 137.304 51.4691 134.827 50.0111V50.0394ZM134.827 64.9596C134.827 67.0405 134.473 68.8524 133.766 70.3388C133.072 71.7968 132.081 72.9434 130.807 73.7362C129.533 74.5289 128.004 74.9394 126.249 74.9394C124.493 74.9394 123.007 74.5289 121.761 73.7362C120.501 72.9434 119.511 71.7968 118.803 70.3388C118.081 68.8524 117.713 67.0546 117.713 64.9596C117.713 62.8645 118.081 61.0667 118.803 59.5804C119.511 58.1223 120.501 56.9757 121.761 56.183C123.021 55.3903 124.522 54.9797 126.249 54.9797C127.976 54.9797 129.547 55.3903 130.807 56.183C132.081 56.9757 133.072 58.1223 133.766 59.5804C134.473 61.0667 134.827 62.8787 134.827 64.9596Z" fill="white"/>
<path d="M169.056 48.3984H144.283C143.887 48.3984 143.576 48.7099 143.576 49.1062V54.2306C143.576 54.627 143.887 54.9384 144.283 54.9384H152.819V80.8152C152.819 81.2116 153.131 81.523 153.527 81.523H159.827C160.223 81.523 160.534 81.2116 160.534 80.8152V54.9384H169.07C169.467 54.9384 169.778 54.627 169.778 54.2306V49.1062C169.778 48.7099 169.467 48.3984 169.07 48.3984H169.056Z" fill="white"/>
<path d="M110.804 48.7099C110.676 48.5258 110.45 48.4126 110.223 48.4126H104.533H97.7804C97.4407 48.4126 97.1434 48.6674 97.0868 49.0071L93.746 69.0517L86.8521 48.8797C86.753 48.5966 86.484 48.3984 86.1867 48.3984H80.4961H73.7437C73.4889 48.3984 73.2624 48.5258 73.135 48.7382C73.0076 48.9505 73.0076 49.2195 73.1208 49.4318L90.2495 81.1408C90.3769 81.3673 90.6175 81.5088 90.8723 81.5088H98.7289C98.7289 81.5088 98.7855 81.4805 98.8138 81.4805C98.8563 81.4805 98.8987 81.4664 98.9412 81.438C99.1394 81.3673 99.3234 81.2399 99.3942 81.0417L110.889 49.361C110.974 49.1487 110.931 48.908 110.804 48.7099ZM98.0919 49.4601H102.65L94.8218 72.2085L94.4679 71.1609L98.0919 49.4743V49.4601ZM78.7549 49.4601L87.8147 74.4451L74.3241 49.4601H78.7549Z" fill="#21D4B4"/>
<path d="M174.014 78.7773V79.1029H173.08V81.5236H172.697V79.1029H171.763V78.7773H174H174.014Z" fill="white"/>
<path d="M174.339 78.7773H174.877L175.669 81.113L176.462 78.7773H177V81.5377H176.646V79.9098C176.646 79.9098 176.646 79.7541 176.646 79.6267C176.646 79.4993 176.646 79.3577 176.646 79.202L175.853 81.5236H175.485L174.693 79.202V79.287C174.693 79.287 174.693 79.4568 174.693 79.5984C174.693 79.7399 174.693 79.839 174.693 79.9098V81.5377H174.339V78.7773Z" fill="white"/>
<defs>
<filter id="filter0_d_3347_8113" x="0" y="29.293" width="194" height="89" filterUnits="userSpaceOnUse" color-interpolation-filters="sRGB">
<feFlood flood-opacity="0" result="BackgroundImageFix"/>
<feColorMatrix in="SourceAlpha" type="matrix" values="0 0 0 0 0 0 0 0 0 0 0 0 0 0 0 0 0 0 127 0" result="hardAlpha"/>
<feOffset dy="2"/>
<feGaussianBlur stdDeviation="2"/>
<feComposite in2="hardAlpha" operator="out"/>
<feColorMatrix type="matrix" values="0 0 0 0 0 0 0 0 0 0 0 0 0 0 0 0 0 0 0.25 0"/>
<feBlend mode="normal" in2="BackgroundImageFix" result="effect1_dropShadow_3347_8113"/>
<feBlend mode="normal" in="SourceGraphic" in2="effect1_dropShadow_3347_8113" result="shape"/>
</filter>
<filter id="filter1_d_3347_8113" x="32" y="0" width="45.479" height="45.4805" filterUnits="userSpaceOnUse" color-interpolation-filters="sRGB">
<feFlood flood-opacity="0" result="BackgroundImageFix"/>
<feColorMatrix in="SourceAlpha" type="matrix" values="0 0 0 0 0 0 0 0 0 0 0 0 0 0 0 0 0 0 127 0" result="hardAlpha"/>
<feOffset dy="2"/>
<feGaussianBlur stdDeviation="1"/>
<feComposite in2="hardAlpha" operator="out"/>
<feColorMatrix type="matrix" values="0 0 0 0 0 0 0 0 0 0 0 0 0 0 0 0 0 0 0.160784 0"/>
<feBlend mode="normal" in2="BackgroundImageFix" result="effect1_dropShadow_3347_8113"/>
<feBlend mode="normal" in="SourceGraphic" in2="effect1_dropShadow_3347_8113" result="shape"/>
</filter>
<filter id="filter2_d_3347_8113" x="127.521" y="0" width="45.479" height="45.4805" filterUnits="userSpaceOnUse" color-interpolation-filters="sRGB">
<feFlood flood-opacity="0" result="BackgroundImageFix"/>
<feColorMatrix in="SourceAlpha" type="matrix" values="0 0 0 0 0 0 0 0 0 0 0 0 0 0 0 0 0 0 127 0" result="hardAlpha"/>
<feOffset dy="2"/>
<feGaussianBlur stdDeviation="1"/>
<feComposite in2="hardAlpha" operator="out"/>
<feColorMatrix type="matrix" values="0 0 0 0 0 0 0 0 0 0 0 0 0 0 0 0 0 0 0.160784 0"/>
<feBlend mode="normal" in2="BackgroundImageFix" result="effect1_dropShadow_3347_8113"/>
<feBlend mode="normal" in="SourceGraphic" in2="effect1_dropShadow_3347_8113" result="shape"/>
</filter>
<filter id="filter3_d_3347_8113" x="79.7605" y="0" width="45.479" height="45.4805" filterUnits="userSpaceOnUse" color-interpolation-filters="sRGB">
<feFlood flood-opacity="0" result="BackgroundImageFix"/>
<feColorMatrix in="SourceAlpha" type="matrix" values="0 0 0 0 0 0 0 0 0 0 0 0 0 0 0 0 0 0 127 0" result="hardAlpha"/>
<feOffset dy="2"/>
<feGaussianBlur stdDeviation="1"/>
<feComposite in2="hardAlpha" operator="out"/>
<feColorMatrix type="matrix" values="0 0 0 0 0 0 0 0 0 0 0 0 0 0 0 0 0 0 0.160784 0"/>
<feBlend mode="normal" in2="BackgroundImageFix" result="effect1_dropShadow_3347_8113"/>
<feBlend mode="normal" in="SourceGraphic" in2="effect1_dropShadow_3347_8113" result="shape"/>
</filter>
</defs>
</svg>
