<svg id="Layer_1" data-name="Layer 1" xmlns="http://www.w3.org/2000/svg" width="95.21" height="24.16" viewBox="0 0 95.21 24.16">
  <g id="Group_27" data-name="Group 27">
    <path id="Path_95" data-name="Path 95" d="M13.75,1.37h0A10.336,10.336,0,0,0,9.01.39H.5a.5.5,0,0,0-.5.5v22.4a.5.5,0,0,0,.5.5H4.98a.5.5,0,0,0,.5-.5V15.44H9.01a9.939,9.939,0,0,0,4.82-1.05,6.984,6.984,0,0,0,2.84-2.78,7.715,7.715,0,0,0,.91-3.68,7.855,7.855,0,0,0-.94-3.84,6.7,6.7,0,0,0-2.88-2.71ZM12,7.92a2.931,2.931,0,0,1-.74,2.12,3.432,3.432,0,0,1-2.53.77H5.49V5.03H8.73a3.489,3.489,0,0,1,2.54.75,2.911,2.911,0,0,1,.74,2.15Z" fill="#fcfcfc"/>
    <rect id="Rectangle_20" data-name="Rectangle 20" width="5.48" height="23.4" rx="0.5" transform="translate(19.78 0.38)" fill="#fcfcfc"/>
    <path id="Path_96" data-name="Path 96" d="M70.52,1.54h0A11.869,11.869,0,0,0,64.46,0a11.633,11.633,0,0,0-6.01,1.54,10.963,10.963,0,0,0-4.11,4.27,12.855,12.855,0,0,0-1.48,6.27,12.967,12.967,0,0,0,1.48,6.27,10.963,10.963,0,0,0,4.11,4.27,11.684,11.684,0,0,0,6.01,1.54,11.9,11.9,0,0,0,6.06-1.54,10.671,10.671,0,0,0,4.09-4.28,13.186,13.186,0,0,0,1.45-6.27A13.214,13.214,0,0,0,74.61,5.8a10.8,10.8,0,0,0-4.09-4.28Zm0,10.54a8.82,8.82,0,0,1-.75,3.8,5.578,5.578,0,0,1-2.09,2.4,5.993,5.993,0,0,1-3.22.85,5.769,5.769,0,0,1-3.17-.85,5.711,5.711,0,0,1-2.09-2.4,8.64,8.64,0,0,1-.77-3.8,8.64,8.64,0,0,1,.77-3.8,5.711,5.711,0,0,1,2.09-2.4,5.841,5.841,0,0,1,3.17-.85,6.017,6.017,0,0,1,3.22.85,5.578,5.578,0,0,1,2.09,2.4,8.82,8.82,0,0,1,.75,3.8Z" fill="#fcfcfc"/>
    <path id="Path_97" data-name="Path 97" d="M94.7.38H77.2a.5.5,0,0,0-.5.5V4.5a.5.5,0,0,0,.5.5h6.03V23.28a.5.5,0,0,0,.5.5h4.45a.5.5,0,0,0,.5-.5V5h6.03a.5.5,0,0,0,.5-.5V.88a.5.5,0,0,0-.5-.5Z" fill="#fcfcfc"/>
    <path id="Path_98" data-name="Path 98" d="M53.55.6a.507.507,0,0,0-.41-.21H44.35a.5.5,0,0,0-.49.42L41.5,14.97,36.63.72a.505.505,0,0,0-.47-.34H27.37a.5.5,0,0,0-.43.24.5.5,0,0,0-.01.49l12.1,22.4a.509.509,0,0,0,.44.26h5.55a.2.2,0,0,1,.06-.02.161.161,0,0,0,.09-.03.5.5,0,0,0,.32-.28L53.61,1.06A.506.506,0,0,0,53.55.6Zm-8.98.53h3.22L42.26,17.2l-.25-.74L44.57,1.14Zm-13.66,0,6.4,17.65L27.78,1.13Z" fill="#1ed4b4"/>
  </g>
</svg>
