<svg xmlns="http://www.w3.org/2000/svg" xmlns:xlink="http://www.w3.org/1999/xlink" width="88" height="88" viewBox="0 0 88 88">
  <defs>
    <filter id="Background" x="0" y="0" width="88" height="88" filterUnits="userSpaceOnUse">
      <feOffset dy="3" input="SourceAlpha"/>
      <feGaussianBlur stdDeviation="3" result="blur"/>
      <feFlood flood-opacity="0.161"/>
      <feComposite operator="in" in2="blur"/>
      <feComposite in="SourceGraphic"/>
    </filter>
  </defs>
  <g id="Widget" transform="translate(9 6)">
    <g transform="matrix(1, 0, 0, 1, -9, -6)" filter="url(#Background)">
      <circle id="Background-2" data-name="Background" cx="35" cy="35" r="35" transform="translate(9 6)" fill="#051a1f"/>
    </g>
    <g id="Layer_1" data-name="Layer 1" transform="translate(14.747 20.185)">
      <path id="Path_94" data-name="Path 94" d="M38.375.316a.729.729,0,0,0-.589-.3H25.161a.723.723,0,0,0-.7.6L21.063,20.978,14.032.489A.726.726,0,0,0,13.357,0H.718A.712.712,0,0,0,.1.345a.723.723,0,0,0-.014.7l17.4,32.207a.732.732,0,0,0,.633.374H26.1l.129-.043a.106.106,0,0,0,.086-.029.693.693,0,0,0,.474-.417L38.461.963A.728.728,0,0,0,38.375.3Zm-12.926.762h4.644L22.142,24.184l-.374-1.078Zm-19.64,0,9.2,25.363L1.322,1.078h4.5Z" fill="#1ed4b4"/>
    </g>
  </g>
</svg>
