<svg width="876" height="536" viewBox="0 0 876 536" fill="none" xmlns="http://www.w3.org/2000/svg">
<g clip-path="url(#clip0_1_9)">
<path fill-rule="evenodd" clip-rule="evenodd" d="M576.109 108.443H0V0H576.109C614.827 0 651.96 15.3808 679.338 42.7587C706.716 70.1367 722.096 107.269 722.096 145.988C722.096 184.706 706.716 221.838 679.338 249.216C651.96 276.594 614.827 291.975 576.109 291.975H316.555C306.653 292.026 297.174 295.996 290.19 303.016C283.206 310.036 279.286 319.535 279.286 329.438C279.286 339.34 283.206 348.839 290.19 355.859C297.174 362.879 306.653 366.849 316.555 366.9H765.43V475.344H316.555C277.858 475.344 240.747 459.972 213.384 432.609C186.021 405.246 170.649 368.135 170.649 329.438C170.649 290.741 186.021 253.63 213.384 226.267C240.747 198.904 277.858 183.532 316.555 183.532H576.109C581.039 183.532 585.921 182.561 590.476 180.674C595.031 178.787 599.17 176.022 602.657 172.536C606.143 169.049 608.908 164.911 610.795 160.355C612.682 155.8 613.653 150.918 613.653 145.988C613.653 141.058 612.682 136.176 610.795 131.621C608.908 127.065 606.143 122.927 602.657 119.44C599.17 115.954 595.031 113.189 590.476 111.302C585.921 109.415 581.039 108.443 576.109 108.443Z" fill="url(#paint0_linear_1_9)"/>
</g>
<g clip-path="url(#clip1_1_9)">
<path d="M765 533.5C824.923 533.5 873.5 484.923 873.5 425C873.5 365.077 824.923 316.5 765 316.5C705.077 316.5 656.5 365.077 656.5 425C656.5 484.923 705.077 533.5 765 533.5Z" fill="#051A1F" stroke="#1ED4B4" stroke-width="5"/>
<g clip-path="url(#clip2_1_9)">
<path d="M822.973 374.964C822.767 374.679 822.497 374.447 822.184 374.287C821.871 374.127 821.524 374.044 821.173 374.044H782.699C782.182 374.049 781.683 374.237 781.29 374.573C780.897 374.91 780.635 375.375 780.551 375.885L770.199 437.946L748.772 375.49C748.623 375.06 748.346 374.687 747.977 374.42C747.608 374.153 747.167 374.007 746.712 374H708.186C707.807 373.995 707.433 374.09 707.102 374.274C706.771 374.459 706.494 374.727 706.299 375.052C706.109 375.377 706.006 375.745 705.998 376.121C705.991 376.497 706.081 376.868 706.258 377.2L759.29 475.376C759.482 475.719 759.762 476.005 760.1 476.206C760.439 476.406 760.825 476.513 761.218 476.516H785.544L785.938 476.385C785.986 476.391 786.034 476.386 786.079 476.371C786.125 476.356 786.166 476.33 786.201 476.297C786.525 476.215 786.826 476.057 787.077 475.836C787.329 475.615 787.524 475.337 787.647 475.026L823.236 376.937C823.356 376.604 823.395 376.247 823.349 375.897C823.304 375.546 823.175 375.211 822.973 374.92V374.964ZM783.573 377.287H797.728L773.491 447.719L772.351 444.432L783.573 377.287ZM723.703 377.287L751.752 454.6L710.027 377.287H723.745H723.703Z" fill="#1ED4B4"/>
</g>
</g>
<defs>
<linearGradient id="paint0_linear_1_9" x1="382.715" y1="0" x2="382.715" y2="475.344" gradientUnits="userSpaceOnUse">
<stop stop-color="#1ED4B4"/>
<stop offset="0.5" stop-color="#2E419E"/>
<stop offset="1" stop-color="#A460FF"/>
</linearGradient>
<clipPath id="clip0_1_9">
<rect width="765.43" height="475.344" fill="white"/>
</clipPath>
<clipPath id="clip1_1_9">
<rect width="222" height="222" fill="white" transform="translate(654 314)"/>
</clipPath>
<clipPath id="clip2_1_9">
<rect width="117.373" height="102.515" fill="white" transform="translate(706 374)"/>
</clipPath>
</defs>
</svg>
